<svg xmlns="http://www.w3.org/2000/svg" xmlns:xlink="http://www.w3.org/1999/xlink" version="1.1" x="0px" y="0px" viewBox="0 0 100 100" enable-background="new 0 0 100 100" xml:space="preserve"><path fill="" d="M66.863,24.844c0.925,3.819,2.5,7.268,4.168,10.92c5.342,11.697,11.396,24.954-0.514,57.362  c-0.143,0.389,0.057,0.82,0.445,0.963c0.086,0.031,0.173,0.046,0.259,0.046c0.306,0,0.593-0.188,0.704-0.491  c12.122-32.987,5.932-46.543,0.47-58.503c-1.637-3.584-3.183-6.971-4.075-10.65l-0.243-1.001c-1.126-4.617-1.939-7.953-2.501-16.921  c-0.025-0.413-0.388-0.732-0.795-0.702c-0.413,0.026-0.728,0.382-0.702,0.795c0.569,9.101,1.396,12.491,2.541,17.183L66.863,24.844z  "></path><path fill="" d="M45.955,80.957c0.186,3.545,0.396,7.563,0.741,12.481c0.027,0.396,0.356,0.698,0.747,0.698  c0.018,0,0.035,0,0.054-0.002c0.413-0.029,0.725-0.387,0.695-0.8c-0.343-4.905-0.554-8.917-0.739-12.455  c-0.37-7.045-0.605-11.498-1.513-14.771c0.641,0.29,1.395,0.484,2.249,0.484c0.559,0,1.169-0.101,1.811-0.294  c0.642,0.193,1.251,0.294,1.811,0.294c0.854,0,1.608-0.194,2.249-0.484c-0.908,3.273-1.143,7.726-1.513,14.771  c-0.186,3.539-0.396,7.55-0.739,12.455c-0.029,0.413,0.282,0.771,0.695,0.8c0.019,0.001,0.036,0.002,0.054,0.002  c0.391,0,0.72-0.302,0.747-0.698c0.345-4.918,0.556-8.936,0.741-12.481c0.783-14.908,0.924-17.594,7.942-22.383  c0.342-0.233,0.43-0.7,0.196-1.042c-0.121-0.178-0.305-0.283-0.502-0.314c-0.089-0.055-0.187-0.092-0.296-0.106  c0.207-0.128,0.356-0.343,0.365-0.604c0.014-0.414-0.312-0.76-0.726-0.774l-1.395-0.046c0.163-0.143,0.269-0.346,0.262-0.579  c-0.013-0.414-0.355-0.752-0.773-0.726l-1.163,0.037l0.536-0.084c0.409-0.064,0.689-0.448,0.625-0.857  c-0.065-0.409-0.455-0.689-0.857-0.624l-1.391,0.219l0.614-0.257c0.383-0.16,0.563-0.599,0.402-0.981  c-0.16-0.383-0.602-0.562-0.98-0.402l-1.246,0.521l0.61-0.515c0.316-0.267,0.357-0.74,0.09-1.057  c-0.267-0.317-0.74-0.355-1.057-0.09l-2.014,1.699l1.598-1.793c0.276-0.309,0.249-0.783-0.061-1.059  c-0.308-0.275-0.784-0.248-1.059,0.061l-2.11,2.367l1.883-2.95c0.224-0.349,0.121-0.813-0.229-1.036s-0.813-0.12-1.035,0.229  l-0.731,1.146l0.191-1.384c0.057-0.41-0.23-0.789-0.641-0.846c-0.412-0.052-0.789,0.23-0.846,0.641l-0.277,2.006l-0.336-1.714  c-0.08-0.407-0.477-0.675-0.881-0.592c-0.406,0.08-0.671,0.474-0.592,0.88l0.305,1.556l-1.034-1.683  c-0.217-0.352-0.679-0.464-1.031-0.246c-0.354,0.217-0.463,0.679-0.246,1.031l1.87,3.042l-1.951-2.42  c-0.262-0.324-0.733-0.373-1.055-0.113c-0.322,0.26-0.373,0.732-0.113,1.055l0.796,0.988l-1.216-0.795  c-0.345-0.226-0.811-0.129-1.038,0.218c-0.227,0.347-0.129,0.811,0.218,1.038l1.918,1.254l-2.57-1.327  c-0.367-0.19-0.821-0.044-1.01,0.322c-0.19,0.368-0.046,0.821,0.322,1.011l3.975,2.052l-4.673-2.152  c-0.374-0.172-0.82-0.009-0.995,0.367c-0.173,0.376-0.009,0.822,0.368,0.995l2.92,1.345l-2.833-1.056  c-0.384-0.143-0.82,0.053-0.965,0.441c-0.145,0.388,0.053,0.82,0.441,0.964l0.859,0.32l-1.038-0.377  c-0.392-0.141-0.82,0.061-0.961,0.449c-0.043,0.117-0.045,0.236-0.03,0.351c-0.325-0.045-0.655,0.113-0.792,0.43  c-0.03,0.069-0.036,0.14-0.045,0.21c-0.28-0.047-0.574,0.064-0.743,0.313c-0.233,0.342-0.146,0.809,0.196,1.042  C45.031,63.362,45.172,66.048,45.955,80.957z"></path><path fill="" d="M28.778,94.135c0.086,0,0.174-0.015,0.259-0.046c0.389-0.143,0.588-0.574,0.445-0.963  c-11.91-32.408-5.855-45.666-0.514-57.362c1.668-3.652,3.243-7.101,4.168-10.92l0.243-1c1.145-4.692,1.972-8.082,2.541-17.183  c0.025-0.414-0.289-0.77-0.702-0.795c-0.418-0.032-0.77,0.288-0.795,0.702c-0.562,8.968-1.375,12.304-2.501,16.921l-0.243,1.001  c-0.893,3.68-2.438,7.066-4.075,10.65c-5.462,11.96-11.652,25.516,0.47,58.503C28.186,93.947,28.473,94.135,28.778,94.135z"></path><path fill="" d="M49.566,38.842c0.036,0.052,0.083,0.1,0.138,0.138c0.002,0.001,0.004,0.001,0.006,0.003  c0.039,0.026,0.083,0.039,0.127,0.054c0.021,0.007,0.041,0.021,0.063,0.025c0.033,0.006,0.066,0,0.1,0.001  c0.034,0,0.067,0.006,0.1-0.001c0.022-0.004,0.041-0.018,0.063-0.025c0.044-0.014,0.088-0.028,0.127-0.054  c0.002-0.001,0.004-0.001,0.006-0.003c0.055-0.038,0.102-0.086,0.138-0.138c0,0,0.119-0.174,0.211-0.435  c0.091-0.261,0.141-0.609,0.125-0.957c-0.006-0.348-0.084-0.696-0.176-0.957c-0.099-0.261-0.207-0.435-0.207-0.435  c-0.036-0.059-0.085-0.104-0.139-0.139c-0.004-0.003-0.005-0.007-0.009-0.009c-0.02-0.012-0.041-0.014-0.062-0.023  c-0.03-0.013-0.059-0.027-0.091-0.034C50.058,35.848,50.029,35.85,50,35.85c-0.029,0-0.058-0.002-0.087,0.003  c-0.032,0.006-0.061,0.021-0.091,0.034c-0.02,0.009-0.042,0.011-0.062,0.023c-0.004,0.002-0.005,0.007-0.009,0.009  c-0.054,0.035-0.103,0.08-0.139,0.139c0,0-0.107,0.174-0.207,0.435c-0.092,0.261-0.17,0.609-0.176,0.957  c-0.016,0.348,0.034,0.696,0.125,0.957C49.448,38.668,49.566,38.842,49.566,38.842z"></path></svg>
