<svg xmlns="http://www.w3.org/2000/svg" xmlns:xlink="http://www.w3.org/1999/xlink" version="1.1" x="0px" y="0px" viewBox="0 0 100 100" enable-background="new 0 0 100 100" xml:space="preserve"><path fill="" d="M66.863,24.844c0.926,3.819,2.501,7.268,4.168,10.92c5.341,11.697,11.396,24.954-0.514,57.362  c-0.143,0.389,0.057,0.82,0.445,0.963c0.085,0.031,0.173,0.046,0.259,0.046c0.305,0,0.592-0.188,0.704-0.491  c12.123-32.988,5.932-46.543,0.47-58.503c-1.637-3.585-3.183-6.971-4.075-10.65L68.08,23.5c-1.127-4.619-1.942-7.957-2.503-16.933  c-0.026-0.413-0.374-0.721-0.795-0.702c-0.413,0.026-0.728,0.382-0.702,0.795c0.569,9.108,1.397,12.5,2.543,17.194L66.863,24.844z"></path><path fill="" d="M45.955,80.956c0.187,3.545,0.397,7.563,0.742,12.481c0.027,0.396,0.357,0.698,0.747,0.698  c0.018,0,0.036,0,0.053-0.002c0.413-0.029,0.725-0.387,0.696-0.8c-0.343-4.905-0.554-8.917-0.74-12.456  c-0.37-7.044-0.605-11.498-1.513-14.77c0.024,0.087,0.537,0.211,0.626,0.239c1.004,0.313,2.078,0.296,3.103,0.042  c0.071-0.018,0.265-0.111,0.33-0.091c0.384,0.115,0.752,0.192,1.107,0.234c0.934,0.239,2.097-0.036,2.953-0.424  c-0.908,3.273-1.143,7.726-1.513,14.77c-0.186,3.539-0.396,7.55-0.74,12.456c-0.029,0.413,0.283,0.771,0.696,0.8  c0.018,0.001,0.036,0.002,0.053,0.002c0.39,0,0.72-0.302,0.747-0.698c0.344-4.918,0.555-8.937,0.742-12.481  c0.783-14.908,0.924-17.594,7.941-22.382c0.342-0.233,0.43-0.7,0.197-1.042c-0.234-0.342-0.701-0.428-1.042-0.197  c-1.864,1.272-3.28,2.422-4.371,3.655c0.068-0.406-0.202-0.792-0.609-0.863l-0.465-0.082c0.068-0.095,0.122-0.201,0.14-0.324  c0.056-0.398-0.214-0.761-0.593-0.835c0.402,0,0.735-0.319,0.749-0.724c0.014-0.414-0.31-0.761-0.724-0.775l-0.26-0.009  c0.342-0.142,0.543-0.507,0.445-0.874c-0.106-0.4-0.521-0.642-0.917-0.532l-0.221,0.059c0.271-0.254,0.328-0.668,0.106-0.977  c-0.241-0.335-0.711-0.412-1.047-0.171l-0.223,0.16l0.28-0.395c0.24-0.338,0.16-0.806-0.178-1.045  c-0.326-0.231-0.769-0.159-1.015,0.149l0.321-0.535c0.213-0.355,0.098-0.816-0.257-1.029c-0.354-0.214-0.816-0.098-1.029,0.257  l-0.523,0.873V52.19c0-0.414-0.336-0.75-0.75-0.75s-0.75,0.336-0.75,0.75v1.328l-0.492-1.016c-0.18-0.373-0.63-0.528-1.001-0.348  c-0.373,0.18-0.529,0.629-0.348,1.001l0.593,1.226l-0.216-0.27c-0.259-0.323-0.729-0.375-1.054-0.118  c-0.324,0.259-0.376,0.731-0.118,1.054l0.035,0.044l-0.207-0.135c-0.346-0.226-0.811-0.13-1.039,0.216  c-0.208,0.318-0.133,0.727,0.146,0.969l-0.465-0.26c-0.36-0.202-0.818-0.072-1.021,0.289c-0.202,0.362-0.072,0.819,0.289,1.021  l0.3,0.167c-0.254,0.024-0.493,0.164-0.611,0.411c-0.149,0.311-0.055,0.663,0.193,0.879c-0.382-0.146-0.815,0.044-0.965,0.427  c-0.15,0.386,0.041,0.821,0.426,0.971c0,0,0.236,0.092,0.235,0.093c-0.291-0.073-0.609,0.03-0.793,0.29  c-0.071,0.1-0.105,0.211-0.122,0.323c-1.061-1.145-2.412-2.229-4.157-3.42c-0.341-0.233-0.808-0.146-1.042,0.197  c-0.233,0.342-0.145,0.809,0.197,1.042C45.031,63.362,45.172,66.048,45.955,80.956z"></path><path fill="" d="M28.778,94.135c0.086,0,0.173-0.015,0.259-0.046c0.389-0.143,0.588-0.574,0.445-0.963  c-11.91-32.408-5.855-45.666-0.514-57.362c1.667-3.652,3.243-7.101,4.168-10.92l0.24-0.988c1.146-4.694,1.974-8.086,2.543-17.194  c0.026-0.414-0.289-0.77-0.702-0.795c-0.425-0.02-0.77,0.289-0.795,0.702c-0.561,8.976-1.375,12.313-2.503,16.933l-0.241,0.99  c-0.892,3.68-2.438,7.065-4.075,10.65c-5.462,11.959-11.652,25.515,0.47,58.503C28.186,93.947,28.473,94.135,28.778,94.135z"></path><path fill="" d="M49.566,38.842c0.036,0.052,0.083,0.1,0.138,0.138c0.002,0.001,0.004,0.001,0.006,0.003  c0.039,0.026,0.083,0.039,0.127,0.054c0.021,0.007,0.041,0.021,0.063,0.025c0.033,0.006,0.066,0,0.1,0.001  c0.034,0,0.067,0.006,0.1-0.001c0.022-0.004,0.041-0.018,0.063-0.025c0.044-0.014,0.088-0.028,0.127-0.054  c0.002-0.001,0.004-0.001,0.006-0.003c0.055-0.038,0.102-0.086,0.138-0.138c0,0,0.119-0.174,0.211-0.435  c0.091-0.261,0.141-0.609,0.125-0.957c-0.006-0.348-0.084-0.696-0.176-0.957c-0.099-0.261-0.207-0.435-0.207-0.435  c-0.036-0.059-0.085-0.104-0.139-0.139c-0.004-0.003-0.005-0.007-0.009-0.009c-0.02-0.012-0.041-0.014-0.062-0.023  c-0.03-0.013-0.059-0.027-0.091-0.034C50.058,35.848,50.029,35.85,50,35.85c-0.029,0-0.058-0.002-0.087,0.003  c-0.032,0.006-0.061,0.021-0.091,0.034c-0.02,0.009-0.042,0.011-0.062,0.023c-0.004,0.002-0.005,0.007-0.009,0.009  c-0.054,0.035-0.103,0.08-0.139,0.139c0,0-0.107,0.174-0.207,0.435c-0.092,0.261-0.17,0.609-0.176,0.957  c-0.016,0.348,0.034,0.696,0.125,0.957C49.448,38.668,49.566,38.842,49.566,38.842z"></path></svg>
