<svg xmlns="http://www.w3.org/2000/svg" xmlns:xlink="http://www.w3.org/1999/xlink" version="1.1" x="0px" y="0px" viewBox="0 0 100 100" enable-background="new 0 0 100 100" xml:space="preserve"><path fill="" d="M66.863,24.844c0.926,3.819,2.501,7.268,4.168,10.92c5.341,11.697,11.396,24.954-0.514,57.362  c-0.143,0.389,0.057,0.82,0.445,0.963c0.085,0.031,0.173,0.046,0.259,0.046c0.305,0,0.592-0.188,0.704-0.491  c12.123-32.988,5.932-46.543,0.47-58.503c-1.637-3.585-3.183-6.971-4.075-10.65L68.08,23.5c-1.127-4.619-1.942-7.957-2.503-16.933  c-0.026-0.413-0.366-0.721-0.795-0.702c-0.413,0.026-0.728,0.382-0.702,0.795c0.569,9.108,1.397,12.5,2.543,17.194L66.863,24.844z"></path><path fill="" d="M45.955,80.956c0.187,3.545,0.397,7.563,0.742,12.481c0.027,0.396,0.357,0.698,0.747,0.698  c0.018,0,0.036,0,0.053-0.002c0.413-0.029,0.725-0.387,0.696-0.8c-0.343-4.905-0.554-8.917-0.74-12.456  c-0.37-7.044-0.605-11.498-1.513-14.77c0.02,0.073,0.457,0.184,0.533,0.209c1.031,0.342,2.122,0.335,3.171,0.078  c0.076-0.019,0.285-0.118,0.355-0.097c0.417,0.126,0.868,0.231,1.301,0.281c0.463,0.053,0.972,0.014,1.431-0.064  c0.458-0.078,0.905-0.215,1.328-0.407c-0.908,3.273-1.143,7.726-1.513,14.77c-0.186,3.539-0.396,7.55-0.74,12.456  c-0.029,0.413,0.283,0.771,0.696,0.8c0.018,0.001,0.036,0.002,0.053,0.002c0.39,0,0.72-0.302,0.747-0.698  c0.344-4.918,0.555-8.937,0.742-12.481c0.783-14.908,0.924-17.594,7.941-22.382c0.342-0.233,0.43-0.7,0.197-1.042  c-0.234-0.342-0.7-0.428-1.042-0.197c-2.975,2.03-4.813,3.752-5.998,5.993c-0.046,0.042-0.096,0.078-0.131,0.132  c-0.057,0.086-1.235,1.802-3.543,1.614c-0.411-0.033-0.665-0.576-0.91-0.843c-0.317-0.345-0.867-0.315-1.16,0.051  c-0.249,0.31-0.424,0.659-0.836,0.789c-2.324,0.204-3.513-1.518-3.574-1.611c-0.036-0.055-0.086-0.093-0.133-0.135  c-1.186-2.24-3.023-3.961-5.997-5.991c-0.342-0.233-0.808-0.146-1.042,0.197c-0.233,0.342-0.145,0.809,0.197,1.042  C45.031,63.362,45.172,66.048,45.955,80.956z"></path><path fill="" d="M28.778,94.135c0.086,0,0.173-0.015,0.259-0.046c0.389-0.143,0.588-0.574,0.445-0.963  c-11.91-32.408-5.855-45.666-0.514-57.362c1.667-3.652,3.243-7.101,4.168-10.92l0.24-0.988c1.146-4.694,1.974-8.086,2.543-17.194  c0.026-0.414-0.289-0.77-0.702-0.795c-0.417-0.02-0.769,0.289-0.795,0.702c-0.561,8.976-1.375,12.313-2.503,16.933l-0.241,0.99  c-0.892,3.68-2.438,7.065-4.075,10.65c-5.462,11.959-11.652,25.515,0.47,58.503C28.186,93.947,28.473,94.135,28.778,94.135z"></path><path fill="" d="M49.566,38.842c0.036,0.052,0.083,0.1,0.138,0.138c0.002,0.001,0.004,0.001,0.006,0.003  c0.039,0.026,0.083,0.039,0.127,0.054c0.021,0.007,0.041,0.021,0.063,0.025c0.033,0.006,0.066,0,0.1,0.001  c0.034,0,0.067,0.006,0.1-0.001c0.022-0.004,0.041-0.018,0.063-0.025c0.044-0.014,0.088-0.028,0.127-0.054  c0.002-0.001,0.004-0.001,0.006-0.003c0.055-0.038,0.102-0.086,0.138-0.138c0,0,0.119-0.174,0.211-0.435  c0.091-0.261,0.141-0.609,0.125-0.957c-0.006-0.348-0.084-0.696-0.176-0.957c-0.099-0.261-0.207-0.435-0.207-0.435  c-0.036-0.059-0.085-0.104-0.139-0.139c-0.004-0.003-0.005-0.007-0.009-0.009c-0.02-0.012-0.041-0.014-0.062-0.023  c-0.03-0.013-0.059-0.027-0.091-0.034C50.058,35.848,50.029,35.85,50,35.85c-0.029,0-0.058-0.002-0.087,0.003  c-0.032,0.006-0.061,0.021-0.091,0.034c-0.02,0.009-0.042,0.011-0.062,0.023c-0.004,0.002-0.005,0.007-0.009,0.009  c-0.054,0.035-0.103,0.08-0.139,0.139c0,0-0.107,0.174-0.207,0.435c-0.092,0.261-0.17,0.609-0.176,0.957  c-0.016,0.348,0.034,0.696,0.125,0.957C49.448,38.668,49.566,38.842,49.566,38.842z"></path><path fill="" d="M49.274,60.702c0.007,0.033,0.015,0.064,0.026,0.095c0.009,0.026,0.018,0.052,0.03,0.076  c0.015,0.031,0.033,0.058,0.052,0.086c0.019,0.029,0.039,0.056,0.062,0.082c0.016,0.018,0.029,0.037,0.047,0.053  c0.025,0.024,0.054,0.041,0.082,0.06c0.031,0.022,0.061,0.042,0.095,0.059c0.019,0.009,0.034,0.022,0.054,0.03  c0.035,0.014,0.073,0.017,0.111,0.026c0.025,0.006,0.046,0.021,0.072,0.025c0.032,0.004,0.063,0.006,0.094,0.006l0.001,0l0.001,0  l0,0l0,0l0.001,0l0.001,0c0.031,0,0.062-0.002,0.094-0.006c0.026-0.003,0.047-0.019,0.072-0.025  c0.037-0.009,0.076-0.011,0.111-0.026c0.02-0.008,0.035-0.021,0.054-0.03c0.034-0.017,0.064-0.037,0.095-0.059  c0.028-0.02,0.057-0.037,0.082-0.06c0.018-0.016,0.031-0.035,0.047-0.053c0.023-0.026,0.043-0.053,0.062-0.082  c0.019-0.028,0.037-0.055,0.052-0.086c0.012-0.025,0.02-0.05,0.03-0.076c0.011-0.032,0.019-0.063,0.026-0.096  c0.004-0.019,0.015-0.034,0.017-0.054l0.773-5.991c0.053-0.411-0.237-0.787-0.647-0.84c-0.046-0.006-0.087,0.007-0.131,0.009  c-0.033-0.384-0.345-0.689-0.738-0.689s-0.705,0.305-0.738,0.689c-0.044-0.002-0.086-0.015-0.131-0.009  c-0.411,0.053-0.701,0.429-0.647,0.84l0.773,5.991C49.259,60.668,49.27,60.683,49.274,60.702z"></path></svg>
