<svg xmlns="http://www.w3.org/2000/svg" xmlns:xlink="http://www.w3.org/1999/xlink" version="1.1" x="0px" y="0px" viewBox="0 0 100 100" enable-background="new 0 0 100 100" xml:space="preserve"><path fill="" d="M66.863,24.844c0.926,3.819,2.501,7.268,4.168,10.92c5.341,11.697,11.396,24.954-0.514,57.362  c-0.143,0.389,0.057,0.82,0.445,0.963c0.085,0.031,0.173,0.046,0.259,0.046c0.305,0,0.592-0.188,0.704-0.491  c12.123-32.988,5.932-46.543,0.47-58.503c-1.637-3.585-3.183-6.971-4.075-10.65L68.08,23.5c-1.127-4.619-1.942-7.957-2.503-16.933  c-0.025-0.413-0.377-0.721-0.795-0.702c-0.413,0.026-0.728,0.382-0.702,0.795c0.569,9.108,1.397,12.5,2.543,17.194L66.863,24.844z"></path><path fill="" d="M45.955,80.956c0.187,3.545,0.397,7.563,0.742,12.481c0.027,0.396,0.357,0.698,0.747,0.698  c0.018,0,0.036,0,0.053-0.002c0.413-0.029,0.725-0.387,0.696-0.8c-0.343-4.905-0.554-8.917-0.74-12.456  c-0.37-7.044-0.605-11.498-1.513-14.77c0.009,0.034,0.219,0.094,0.256,0.108c0.093,0.037,0.187,0.071,0.282,0.102  c0.202,0.067,0.409,0.122,0.618,0.165c0.85,0.173,1.716,0.116,2.555-0.089c0.075-0.018,0.28-0.116,0.349-0.095  c1.153,0.347,2.366,0.402,3.518,0.021c0.096-0.032,0.191-0.066,0.284-0.103c0.037-0.014,0.248-0.075,0.258-0.109  c-0.908,3.273-1.143,7.726-1.513,14.77c-0.186,3.539-0.396,7.55-0.74,12.456c-0.029,0.413,0.283,0.771,0.696,0.8  c0.018,0.001,0.036,0.002,0.053,0.002c0.39,0,0.72-0.302,0.747-0.698c0.344-4.918,0.555-8.937,0.742-12.481  c0.783-14.908,0.924-17.594,7.941-22.382c0.342-0.233,0.43-0.7,0.197-1.042c-0.234-0.342-0.7-0.428-1.042-0.197  c-2.975,2.03-4.813,3.752-5.998,5.993c-0.046,0.041-0.096,0.078-0.131,0.132c-0.057,0.086-1.235,1.802-3.543,1.614  c-0.481-0.132-0.79-0.681-0.799-0.697c-0.271-0.511-1.074-0.536-1.342,0.005c-0.003,0.006-0.299,0.543-0.765,0.689  c-2.323,0.204-3.513-1.518-3.574-1.611c-0.036-0.055-0.086-0.093-0.133-0.135c-1.186-2.24-3.023-3.961-5.997-5.991  c-0.342-0.233-0.808-0.146-1.042,0.197c-0.233,0.342-0.145,0.809,0.197,1.042C45.031,63.362,45.172,66.048,45.955,80.956z"></path><path fill="" d="M28.778,94.135c0.086,0,0.173-0.015,0.259-0.046c0.389-0.143,0.588-0.574,0.445-0.963  c-11.91-32.408-5.855-45.666-0.514-57.362c1.667-3.652,3.243-7.101,4.168-10.92l0.24-0.988c1.146-4.694,1.974-8.086,2.543-17.194  c0.026-0.414-0.289-0.77-0.702-0.795c-0.415-0.02-0.77,0.289-0.795,0.702c-0.561,8.976-1.375,12.313-2.503,16.933l-0.241,0.99  c-0.892,3.68-2.438,7.065-4.075,10.65c-5.462,11.959-11.652,25.515,0.47,58.503C28.186,93.947,28.473,94.135,28.778,94.135z"></path><path fill="" d="M49.566,38.842c0.036,0.052,0.083,0.1,0.138,0.138c0.002,0.001,0.004,0.001,0.006,0.003  c0.039,0.026,0.083,0.039,0.127,0.054c0.021,0.007,0.041,0.021,0.063,0.025c0.033,0.006,0.066,0,0.1,0.001  c0.034,0,0.067,0.006,0.1-0.001c0.022-0.004,0.041-0.018,0.063-0.025c0.044-0.014,0.088-0.028,0.127-0.054  c0.002-0.001,0.004-0.001,0.006-0.003c0.055-0.038,0.102-0.086,0.138-0.138c0,0,0.119-0.174,0.211-0.435  c0.091-0.261,0.141-0.609,0.125-0.957c-0.006-0.348-0.084-0.696-0.176-0.957c-0.099-0.261-0.207-0.435-0.207-0.435  c-0.036-0.059-0.085-0.104-0.139-0.139c-0.004-0.003-0.005-0.007-0.009-0.009c-0.02-0.012-0.041-0.014-0.062-0.023  c-0.03-0.013-0.059-0.027-0.091-0.034C50.058,35.848,50.029,35.85,50,35.85c-0.029,0-0.058-0.002-0.087,0.003  c-0.032,0.006-0.061,0.021-0.091,0.034c-0.02,0.009-0.042,0.011-0.062,0.023c-0.004,0.002-0.005,0.007-0.009,0.009  c-0.054,0.035-0.103,0.08-0.139,0.139c0,0-0.107,0.174-0.207,0.435c-0.092,0.261-0.17,0.609-0.176,0.957  c-0.016,0.348,0.034,0.696,0.125,0.957C49.448,38.668,49.566,38.842,49.566,38.842z"></path><path fill="" d="M48.692,60.154c0.146,0.207,0.377,0.316,0.612,0.316c0.12,0,0.238-0.037,0.348-0.096  c0.105,0.056,0.22,0.096,0.347,0.096s0.242-0.04,0.347-0.096c0.111,0.059,0.229,0.096,0.348,0.096c0.235,0,0.466-0.11,0.612-0.316  l2.124-2.998c0.24-0.338,0.16-0.806-0.178-1.045c-0.326-0.231-0.769-0.159-1.014,0.149l0.32-0.534  c0.213-0.355,0.098-0.816-0.257-1.029c-0.354-0.214-0.816-0.099-1.029,0.257l-0.523,0.872V54.7c0-0.414-0.336-0.75-0.75-0.75  s-0.75,0.336-0.75,0.75v1.126l-0.523-0.872c-0.214-0.356-0.674-0.471-1.029-0.257c-0.355,0.213-0.471,0.674-0.257,1.029l0.32,0.534  c-0.246-0.308-0.688-0.38-1.014-0.149c-0.338,0.239-0.418,0.708-0.178,1.045L48.692,60.154z"></path></svg>
